# xmcd
#
# Track frame offsets:
#	150
#	17573
#	35125
#	56468
#	73301
#	90155
#	107762
#	127105
#	143713
#	159265
#	177749
#	195691
#	213131
#	231308
#	249071
#	267585
#	280631
#	298496
#	314767
#	330726
#
# Disc length: 4690 seconds
#
# Revision: 2
# Processed by: cddbd v1.5.2PL0 Copyright (c) Steve Scherf et al.
# Submitted via: EasyCDDAExtractor 12.0.1.1
#
DISCID=33125014
DTITLE=Various Artist - Bravo Hits, Vol. 17 [Disc 1]
DYEAR=1997
DGENRE=Pop
TTITLE0=Nana - Lonely
TTITLE1=Sabrina Setlur - Du Liebst Mich Nicht
TTITLE2=R. Kelly - I Belive I Can Fly
TTITLE3=R'n'g - Rhythm Of My Heart
TTITLE4=G's Incorporated - Tell Me What A G Is
TTITLE5=A.k. S.w.i.f.t - Light In Me
TTITLE6=Backstreet Boys - If You Stay
TTITLE7=Spice Girls - Mama
TTITLE8=Skunk Anansie - Hedonism (Just Because You Feel Good)
TTITLE9=Depeche Mode - It's No Good
TTITLE10=Smoke City - Underwater Love
TTITLE11=Robbie Williams - Old Before I Die
TTITLE12=The Kelly Family - Nanana
TTITLE13=Jam and Spoon - Kaleidoscope Skies
TTITLE14=Hand In Hand For Children E.v. - Children Need A Helping Hand
TTITLE15=Katrina and The Waves - Love Shine A Light
TTITLE16=Enrico Ceravolo - Sensazione
TTITLE17=911 - Bodyshakin'
TTITLE18=Tic Tac Toe - Furz
TTITLE19=Die Toten Hosen - Seelentherapie (Live Bonustrack)
EXTD=
EXTT0=
EXTT1=
EXTT2=
EXTT3=
EXTT4=
EXTT5=
EXTT6=
EXTT7=
EXTT8=
EXTT9=
EXTT10=
EXTT11=
EXTT12=
EXTT13=
EXTT14=
EXTT15=
EXTT16=
EXTT17=
EXTT18=
EXTT19=
PLAYORDER=
